<?xml version="1.0" encoding="UTF-8"?>
<svg width="73.34mm" height="115.58mm" version="1.1" viewBox="0 0 73.34 115.58" xmlns="http://www.w3.org/2000/svg" xmlns:cc="http://creativecommons.org/ns#" xmlns:dc="http://purl.org/dc/elements/1.1/" xmlns:rdf="http://www.w3.org/1999/02/22-rdf-syntax-ns#">
 <metadata>
  <rdf:RDF>
   <cc:Work rdf:about="">
    <dc:format>image/svg+xml</dc:format>
    <dc:type rdf:resource="http://purl.org/dc/dcmitype/StillImage"/>
    <dc:title/>
   </cc:Work>
  </rdf:RDF>
 </metadata>
 <g transform="translate(-66.044 -104.82)">
  <path d="m78.276 215.39c-0.03456-4.3989-0.03477-8.797-0.13789-13.195-0.06372-3.4128-0.15706-6.8239-0.2913-10.235-0.1112-3.0385-0.12272-6.0792-0.1372-9.1194-0.01122-3.0156-0.0109-6.0313-0.01117-9.047-0.01371-3.1576-0.01215-6.3151 0.0095-9.4727 0.01693-2.3936 0.08193-4.7853-0.08367-7.1747-0.22191-2.1778-0.64166-4.3258-0.87371-6.5028-0.18858-2.0245-0.2081-4.0592-0.22404-6.0909-0.09774-2.117-0.1706-4.2348-0.21149-6.3536-0.02823-1.8089-0.02474-3.6182-0.01254-5.4273-0.0034-1.5478 0.0024-3.0956 0.0011-4.6434-0.01918-1.6349-0.13257-3.2674-0.18395-4.902-0.02991-0.99751-0.03337-1.9955-0.0336-2.9934-0.05449-1.2146 0.90169-2.1166 1.6643-2.9517 3.0733-3.5282 13.911-9.3484-2.4542 0.18848 2.7571-1.5044 5.7183-2.5847 8.6519-3.6871 2.9107-1.1708 5.9552-1.812 9.0596-2.1672 3.7924-0.27015 7.602-0.36734 11.404-0.35935 3.1274 2e-3 6.1558 0.65628 9.0838 1.7059 1.9882 0.73372 3.9017 1.6285 5.657 2.8173 1.9493 1.3532 3.3677 3.223 4.6457 5.1886 1.4077 2.3012 2.5298 4.76 3.6761 7.1975 1.0866 1.9832 1.5979 4.129 1.8482 6.3544 0.21012 2.6725 0.18853 5.3557 0.17697 8.0342 0.13055 2.6709-0.42448 5.2228-1.3773 7.6976-1.8604 4.1167-5.2316 7.1446-8.6396 9.9757 1.5869-0.63527-6.0149 3.9041-4.4871 2.9658 2.2023-1.3525 4.5952-2.4312 6.6164-4.0417 0.79935-0.63693-1.9022 0.75292-2.8765 1.0617-2.2764 0.72148-3.4977 0.89533-5.8114 1.3489-3.7176 0.65227-7.4879 0.84191-11.255 0.87571-2.4645 4e-3 -4.9289-0.0307-7.3932-0.0545-1.8547-0.0111-3.7093-0.0294-5.564-0.0445-1.0048-0.01-2.0095-0.0166-3.0143-0.0198-0.51432-1e-3 -1.0286-0.01-1.5428-0.0148-0.46224-2e-3 -0.92449 7e-3 -1.3867 0.011-0.53391 4e-3 -1.0678-1.3e-4 -1.6017-6e-3l-9.1316 6.6345c0.53911-5e-3 1.0783-0.01 1.6174-6e-3 0.45223 4e-3 0.90448 0.0129 1.3567 0.0109 0.5281-5e-3 1.0562-0.0137 1.5843-0.0152 1.0219-4e-3 2.0438-0.0111 3.0657-0.0191 1.8764-0.0113 3.7529-0.0224 5.6294-0.0108 2.4831 9e-3 4.9661 0.036 7.4492 0.0368 3.8901-0.0437 7.7802-0.2508 11.622-0.90882 2.4322-0.44107 6.6994-1.0885 8.8555-2.1837 5.6108-2.85 11.292-5.7833 16.275-9.6711 3.47-3.0125 6.8537-6.2512 8.632-10.589 0.89644-2.6104 1.3839-5.2835 1.2361-8.0574-0.0124-2.7196 0.0113-5.4464-0.2099-8.1587-0.27077-2.3444-0.89894-4.5837-2.0341-6.6693-1.184-2.4707-2.3543-4.9564-3.7781-7.3008-1.3268-2.0971-2.7689-4.1155-4.789-5.6088-1.8051-1.2979-3.7896-2.245-5.8732-3.0184-3.0254-1.1345-6.159-1.8785-9.4078-1.94-3.8034-0.0561-7.6101 0.10375-11.411 0.21957-3.158 0.26141-6.2716 0.79399-9.2409 1.948-2.9477 1.0871-5.9116 2.1608-8.7417 3.5319-5.844 3.3862-11.85 6.0373-16.345 11.094-0.85701 1.1305-1.6183 2.2395-1.4622 3.7194 0.01331 1.0022 0.0425 2.0042 0.1025 3.0049 0.09135 1.6154 0.20641 3.2317 0.17543 4.8507-0.0021 1.5484 0.0011 3.0969-1.8e-5 4.6453 0.01818 1.8073 0.03419 3.6145 0.07228 5.4215 0.04962 2.1152 0.14903 4.2284 0.20275 6.3433 0.02336 2.0659 0.05701 4.1352 0.28041 6.1912 0.25871 2.1538 0.68742 4.2842 0.85919 6.4482 0.13541 2.3575 0.08277 4.7192 0.11505 7.0796 0.02111 3.1549 0.02143 6.3098 0.0057 9.4647-0.0019 3.0192-0.0065 6.0383 0.0044 9.0574 0.01826 3.0487 0.06229 6.0974 0.16592 9.1445 0.12156 3.3914 0.29503 6.7808 0.39002 10.173 0.15358 4.4102 0.25058 8.83-0.07852 13.236l9.9169-5.0186z" stroke-width=".26458"/>
 </g>
</svg>
